<?xml version="1.0" encoding="UTF-8" standalone="no"?><svg xmlns="http://www.w3.org/2000/svg" xmlns:xlink="http://www.w3.org/1999/xlink" contentScriptType="application/ecmascript" contentStyleType="text/css" height="891px" preserveAspectRatio="none" style="width:1099px;height:891px;background:#FFFFFF;" version="1.1" viewBox="0 0 1099 891" width="1099px" zoomAndPan="magnify"><defs><filter height="300%" id="feo3e50p8s0fk" width="300%" x="-1" y="-1"><feGaussianBlur result="blurOut" stdDeviation="2.0"/><feColorMatrix in="blurOut" result="blurOut2" type="matrix" values="0 0 0 0 0 0 0 0 0 0 0 0 0 0 0 0 0 0 .4 0"/><feOffset dx="4.0" dy="4.0" in="blurOut2" result="blurOut3"/><feBlend in="SourceGraphic" in2="blurOut3" mode="normal"/></filter></defs><g><line style="stroke:#A80036;stroke-width:1.0;stroke-dasharray:5.0,5.0;" x1="24" x2="24" y1="88.2969" y2="807.4844"/><line style="stroke:#A80036;stroke-width:1.0;stroke-dasharray:5.0,5.0;" x1="347.5" x2="347.5" y1="88.2969" y2="807.4844"/><line style="stroke:#A80036;stroke-width:1.0;stroke-dasharray:5.0,5.0;" x1="678.5" x2="678.5" y1="88.2969" y2="807.4844"/><line style="stroke:#A80036;stroke-width:1.0;stroke-dasharray:5.0,5.0;" x1="858" x2="858" y1="88.2969" y2="807.4844"/><line style="stroke:#A80036;stroke-width:1.0;stroke-dasharray:5.0,5.0;" x1="1074" x2="1074" y1="88.2969" y2="807.4844"/><text fill="#000000" font-family="sans-serif" font-size="14" lengthAdjust="spacing" textLength="32" x="5" y="84.9951">User</text><ellipse cx="24" cy="15" fill="#FEFECE" filter="url(#feo3e50p8s0fk)" rx="8" ry="8" style="stroke:#A80036;stroke-width:2.0;"/><path d="M24,23 L24,50 M11,31 L37,31 M24,50 L11,65 M24,50 L37,65 " fill="none" filter="url(#feo3e50p8s0fk)" style="stroke:#A80036;stroke-width:2.0;"/><text fill="#000000" font-family="sans-serif" font-size="14" lengthAdjust="spacing" textLength="32" x="5" y="819.4795">User</text><ellipse cx="24" cy="832.7813" fill="#FEFECE" filter="url(#feo3e50p8s0fk)" rx="8" ry="8" style="stroke:#A80036;stroke-width:2.0;"/><path d="M24,840.7813 L24,867.7813 M11,848.7813 L37,848.7813 M24,867.7813 L11,882.7813 M24,867.7813 L37,882.7813 " fill="none" filter="url(#feo3e50p8s0fk)" style="stroke:#A80036;stroke-width:2.0;"/><text fill="#000000" font-family="sans-serif" font-size="14" lengthAdjust="spacing" textLength="57" x="316.5" y="84.9951">Browser</text><path d="M327.5,44 L327.5,68 M327.5,56 L344.5,56 " fill="none" filter="url(#feo3e50p8s0fk)" style="stroke:#A80036;stroke-width:2.0;"/><ellipse cx="356.5" cy="56" fill="#FEFECE" filter="url(#feo3e50p8s0fk)" rx="12" ry="12" style="stroke:#A80036;stroke-width:2.0;"/><text fill="#000000" font-family="sans-serif" font-size="14" lengthAdjust="spacing" textLength="57" x="316.5" y="819.4795">Browser</text><path d="M327.5,826.7813 L327.5,850.7813 M327.5,838.7813 L344.5,838.7813 " fill="none" filter="url(#feo3e50p8s0fk)" style="stroke:#A80036;stroke-width:2.0;"/><ellipse cx="356.5" cy="838.7813" fill="#FEFECE" filter="url(#feo3e50p8s0fk)" rx="12" ry="12" style="stroke:#A80036;stroke-width:2.0;"/><text fill="#000000" font-family="sans-serif" font-size="14" lengthAdjust="spacing" textLength="67" x="642.5" y="84.9951">Controller</text><ellipse cx="679" cy="56" fill="#FEFECE" filter="url(#feo3e50p8s0fk)" rx="12" ry="12" style="stroke:#A80036;stroke-width:2.0;"/><polygon fill="#A80036" points="675,44,681,39,679,44,681,49,675,44" style="stroke:#A80036;stroke-width:1.0;"/><text fill="#000000" font-family="sans-serif" font-size="14" lengthAdjust="spacing" textLength="67" x="642.5" y="819.4795">Controller</text><ellipse cx="679" cy="838.7813" fill="#FEFECE" filter="url(#feo3e50p8s0fk)" rx="12" ry="12" style="stroke:#A80036;stroke-width:2.0;"/><polygon fill="#A80036" points="675,826.7813,681,821.7813,679,826.7813,681,831.7813,675,826.7813" style="stroke:#A80036;stroke-width:1.0;"/><rect fill="#FEFECE" filter="url(#feo3e50p8s0fk)" height="30.2969" style="stroke:#A80036;stroke-width:1.5;" width="54" x="831" y="49"/><rect fill="#FEFECE" filter="url(#feo3e50p8s0fk)" height="30.2969" style="stroke:#A80036;stroke-width:1.5;" width="54" x="827" y="53"/><text fill="#000000" font-family="sans-serif" font-size="14" lengthAdjust="spacing" textLength="40" x="834" y="72.9951">Views</text><rect fill="#FEFECE" filter="url(#feo3e50p8s0fk)" height="30.2969" style="stroke:#A80036;stroke-width:1.5;" width="54" x="831" y="806.4844"/><rect fill="#FEFECE" filter="url(#feo3e50p8s0fk)" height="30.2969" style="stroke:#A80036;stroke-width:1.5;" width="54" x="827" y="810.4844"/><text fill="#000000" font-family="sans-serif" font-size="14" lengthAdjust="spacing" textLength="40" x="834" y="830.4795">Views</text><text fill="#000000" font-family="sans-serif" font-size="14" lengthAdjust="spacing" textLength="42" x="1050" y="84.9951">Model</text><path d="M1056,36 C1056,26 1074,26 1074,26 C1074,26 1092,26 1092,36 L1092,62 C1092,72 1074,72 1074,72 C1074,72 1056,72 1056,62 L1056,36 " fill="#FEFECE" filter="url(#feo3e50p8s0fk)" style="stroke:#000000;stroke-width:1.5;"/><path d="M1056,36 C1056,46 1074,46 1074,46 C1074,46 1092,46 1092,36 " fill="none" style="stroke:#000000;stroke-width:1.5;"/><text fill="#000000" font-family="sans-serif" font-size="14" lengthAdjust="spacing" textLength="42" x="1050" y="819.4795">Model</text><path d="M1056,832.7813 C1056,822.7813 1074,822.7813 1074,822.7813 C1074,822.7813 1092,822.7813 1092,832.7813 L1092,858.7813 C1092,868.7813 1074,868.7813 1074,868.7813 C1074,868.7813 1056,868.7813 1056,858.7813 L1056,832.7813 " fill="#FEFECE" filter="url(#feo3e50p8s0fk)" style="stroke:#000000;stroke-width:1.5;"/><path d="M1056,832.7813 C1056,842.7813 1074,842.7813 1074,842.7813 C1074,842.7813 1092,842.7813 1092,832.7813 " fill="none" style="stroke:#000000;stroke-width:1.5;"/><polygon fill="#A80036" points="336,115.4297,346,119.4297,336,123.4297,340,119.4297" style="stroke:#A80036;stroke-width:1.0;"/><line style="stroke:#A80036;stroke-width:1.0;" x1="24" x2="342" y1="119.4297" y2="119.4297"/><text fill="#000000" font-family="sans-serif" font-size="13" lengthAdjust="spacing" textLength="128" x="31" y="114.3638">go to localhost:port/</text><polygon fill="#A80036" points="667,144.5625,677,148.5625,667,152.5625,671,148.5625" style="stroke:#A80036;stroke-width:1.0;"/><line style="stroke:#A80036;stroke-width:1.0;" x1="348" x2="673" y1="148.5625" y2="148.5625"/><text fill="#000000" font-family="sans-serif" font-size="13" lengthAdjust="spacing" textLength="103" x="355" y="143.4966">REQUEST GET '/'</text><polygon fill="#A80036" points="846,173.6953,856,177.6953,846,181.6953,850,177.6953" style="stroke:#A80036;stroke-width:1.0;"/><line style="stroke:#A80036;stroke-width:1.0;" x1="679" x2="852" y1="177.6953" y2="177.6953"/><text fill="#000000" font-family="sans-serif" font-size="13" lengthAdjust="spacing" textLength="120" x="686" y="172.6294">route function @ '/'</text><polygon fill="#A80036" points="690,202.8281,680,206.8281,690,210.8281,686,206.8281" style="stroke:#A80036;stroke-width:1.0;"/><line style="stroke:#A80036;stroke-width:1.0;" x1="684" x2="857" y1="206.8281" y2="206.8281"/><text fill="#000000" font-family="sans-serif" font-size="13" lengthAdjust="spacing" textLength="134" x="696" y="201.7622">return file (index.erb)</text><polygon fill="#A80036" points="359,231.9609,349,235.9609,359,239.9609,355,235.9609" style="stroke:#A80036;stroke-width:1.0;"/><line style="stroke:#A80036;stroke-width:1.0;" x1="353" x2="678" y1="235.9609" y2="235.9609"/><text fill="#000000" font-family="sans-serif" font-size="13" lengthAdjust="spacing" textLength="179" x="365" y="230.895">RESPONSE ./views/index.erb</text><polygon fill="#A80036" points="35,261.0938,25,265.0938,35,269.0938,31,265.0938" style="stroke:#A80036;stroke-width:1.0;"/><line style="stroke:#A80036;stroke-width:1.0;" x1="29" x2="347" y1="265.0938" y2="265.0938"/><text fill="#000000" font-family="sans-serif" font-size="13" lengthAdjust="spacing" textLength="294" x="41" y="260.0278">can see index.erb in browser at localhost:port/</text><polygon fill="#A80036" points="336,290.2266,346,294.2266,336,298.2266,340,294.2266" style="stroke:#A80036;stroke-width:1.0;"/><line style="stroke:#A80036;stroke-width:1.0;" x1="24" x2="342" y1="294.2266" y2="294.2266"/><text fill="#000000" font-family="sans-serif" font-size="13" lengthAdjust="spacing" textLength="193" x="31" y="289.1606">Enter + Submit name params</text><polygon fill="#A80036" points="667,319.3594,677,323.3594,667,327.3594,671,323.3594" style="stroke:#A80036;stroke-width:1.0;"/><line style="stroke:#A80036;stroke-width:1.0;" x1="348" x2="673" y1="323.3594" y2="323.3594"/><text fill="#000000" font-family="sans-serif" font-size="13" lengthAdjust="spacing" textLength="307" x="355" y="318.2935">REQUEST POST params to localhost:port/names</text><polygon fill="#A80036" points="1062,348.4922,1072,352.4922,1062,356.4922,1066,352.4922" style="stroke:#A80036;stroke-width:1.0;"/><line style="stroke:#A80036;stroke-width:1.0;" x1="679" x2="1068" y1="352.4922" y2="352.4922"/><text fill="#000000" font-family="sans-serif" font-size="13" lengthAdjust="spacing" textLength="221" x="686" y="347.4263">assign param to Game.name data</text><polygon fill="#A80036" points="869,377.625,859,381.625,869,385.625,865,381.625" style="stroke:#A80036;stroke-width:1.0;"/><line style="stroke:#A80036;stroke-width:1.0;" x1="863" x2="1073" y1="381.625" y2="381.625"/><text fill="#000000" font-family="sans-serif" font-size="13" lengthAdjust="spacing" textLength="192" x="875" y="376.5591">state update in ./views/rps.erb</text><polygon fill="#A80036" points="690,406.7578,680,410.7578,690,414.7578,686,410.7578" style="stroke:#A80036;stroke-width:1.0;"/><line style="stroke:#A80036;stroke-width:1.0;" x1="684" x2="1073" y1="410.7578" y2="410.7578"/><text fill="#000000" font-family="sans-serif" font-size="13" lengthAdjust="spacing" textLength="181" x="696" y="405.6919">Model state change success</text><polygon fill="#A80036" points="846,435.8906,856,439.8906,846,443.8906,850,439.8906" style="stroke:#A80036;stroke-width:1.0;"/><line style="stroke:#A80036;stroke-width:1.0;" x1="679" x2="852" y1="439.8906" y2="439.8906"/><text fill="#000000" font-family="sans-serif" font-size="13" lengthAdjust="spacing" textLength="149" x="686" y="434.8247">re-route GET to '/game'</text><polygon fill="#A80036" points="690,465.0234,680,469.0234,690,473.0234,686,469.0234" style="stroke:#A80036;stroke-width:1.0;"/><line style="stroke:#A80036;stroke-width:1.0;" x1="684" x2="857" y1="469.0234" y2="469.0234"/><text fill="#000000" font-family="sans-serif" font-size="13" lengthAdjust="spacing" textLength="120" x="696" y="463.9575">return file (rps.erb)</text><polygon fill="#A80036" points="359,494.1563,349,498.1563,359,502.1563,355,498.1563" style="stroke:#A80036;stroke-width:1.0;"/><line style="stroke:#A80036;stroke-width:1.0;" x1="353" x2="678" y1="498.1563" y2="498.1563"/><text fill="#000000" font-family="sans-serif" font-size="13" lengthAdjust="spacing" textLength="194" x="365" y="493.0903">RESPONSE GET ./views/rps.erb</text><polygon fill="#A80036" points="35,523.2891,25,527.2891,35,531.2891,31,527.2891" style="stroke:#A80036;stroke-width:1.0;"/><line style="stroke:#A80036;stroke-width:1.0;" x1="29" x2="347" y1="527.2891" y2="527.2891"/><text fill="#000000" font-family="sans-serif" font-size="13" lengthAdjust="spacing" textLength="220" x="41" y="522.2231">sees name at localhost:port/game</text><polygon fill="#A80036" points="336,552.4219,346,556.4219,336,560.4219,340,556.4219" style="stroke:#A80036;stroke-width:1.0;"/><line style="stroke:#A80036;stroke-width:1.0;" x1="24" x2="342" y1="556.4219" y2="556.4219"/><text fill="#000000" font-family="sans-serif" font-size="13" lengthAdjust="spacing" textLength="93" x="31" y="551.356">Clicks on R/P/S</text><polygon fill="#A80036" points="667,581.5547,677,585.5547,667,589.5547,671,585.5547" style="stroke:#A80036;stroke-width:1.0;"/><line style="stroke:#A80036;stroke-width:1.0;" x1="348" x2="673" y1="585.5547" y2="585.5547"/><text fill="#000000" font-family="sans-serif" font-size="13" lengthAdjust="spacing" textLength="276" x="355" y="580.4888">REQUEST POST params to Game dataclass</text><polygon fill="#A80036" points="1062,610.6875,1072,614.6875,1062,618.6875,1066,614.6875" style="stroke:#A80036;stroke-width:1.0;"/><line style="stroke:#A80036;stroke-width:1.0;" x1="679" x2="1068" y1="614.6875" y2="614.6875"/><text fill="#000000" font-family="sans-serif" font-size="13" lengthAdjust="spacing" textLength="236" x="686" y="609.6216">passes param to Game.play function</text><polygon fill="#A80036" points="869,639.8203,859,643.8203,869,647.8203,865,643.8203" style="stroke:#A80036;stroke-width:1.0;"/><line style="stroke:#A80036;stroke-width:1.0;" x1="863" x2="1073" y1="643.8203" y2="643.8203"/><text fill="#000000" font-family="sans-serif" font-size="13" lengthAdjust="spacing" textLength="177" x="875" y="638.7544">state update ./views/rps.erb</text><polygon fill="#A80036" points="690,668.9531,680,672.9531,690,676.9531,686,672.9531" style="stroke:#A80036;stroke-width:1.0;"/><line style="stroke:#A80036;stroke-width:1.0;" x1="684" x2="1073" y1="672.9531" y2="672.9531"/><text fill="#000000" font-family="sans-serif" font-size="13" lengthAdjust="spacing" textLength="181" x="696" y="667.8872">Model state change success</text><polygon fill="#A80036" points="846,698.0859,856,702.0859,846,706.0859,850,702.0859" style="stroke:#A80036;stroke-width:1.0;"/><line style="stroke:#A80036;stroke-width:1.0;" x1="679" x2="852" y1="702.0859" y2="702.0859"/><text fill="#000000" font-family="sans-serif" font-size="13" lengthAdjust="spacing" textLength="149" x="686" y="697.02">re-route GET to '/game'</text><polygon fill="#A80036" points="690,727.2188,680,731.2188,690,735.2188,686,731.2188" style="stroke:#A80036;stroke-width:1.0;"/><line style="stroke:#A80036;stroke-width:1.0;" x1="684" x2="857" y1="731.2188" y2="731.2188"/><text fill="#000000" font-family="sans-serif" font-size="13" lengthAdjust="spacing" textLength="155" x="696" y="726.1528">return updated (rps.erb)</text><polygon fill="#A80036" points="359,756.3516,349,760.3516,359,764.3516,355,760.3516" style="stroke:#A80036;stroke-width:1.0;"/><line style="stroke:#A80036;stroke-width:1.0;" x1="353" x2="678" y1="760.3516" y2="760.3516"/><text fill="#000000" font-family="sans-serif" font-size="13" lengthAdjust="spacing" textLength="194" x="365" y="755.2856">RESPONSE GET ./views/rps.erb</text><polygon fill="#A80036" points="35,785.4844,25,789.4844,35,793.4844,31,789.4844" style="stroke:#A80036;stroke-width:1.0;"/><line style="stroke:#A80036;stroke-width:1.0;" x1="29" x2="347" y1="789.4844" y2="789.4844"/><text fill="#000000" font-family="sans-serif" font-size="13" lengthAdjust="spacing" textLength="300" x="41" y="784.4185">Sees updated game, you lose / win / play again</text><!--MD5=[6eac0ac349fb380ccf982b04813d4c2a]
@startuml

actor User

boundary Browser

control Controller

collections Views

database Model

User -> Browser : go to localhost:port/
Browser -> Controller : REQUEST GET '/'
Controller -> Views : route function @ '/'
Views -> Controller : return file (index.erb)
Controller -> Browser : RESPONSE ./views/index.erb
Browser -> User : can see index.erb in browser at localhost:port/

User -> Browser : Enter + Submit name params
Browser -> Controller : REQUEST POST params to localhost:port/names
Controller -> Model : assign param to Game.name data
Model -> Views : state update in ./views/rps.erb
Model -> Controller : Model state change success
Controller -> Views : re-route GET to '/game'
Views -> Controller : return file (rps.erb)
Controller -> Browser : RESPONSE GET ./views/rps.erb
Browser -> User : sees name at localhost:port/game

User -> Browser : Clicks on R/P/S
Browser -> Controller : REQUEST POST params to Game dataclass
Controller -> Model : passes param to Game.play function
Model -> Views : state update ./views/rps.erb
Model -> Controller : Model state change success
Controller -> Views : re-route GET to '/game'
Views -> Controller : return updated (rps.erb)
Controller -> Browser : RESPONSE GET ./views/rps.erb
Browser -> User : Sees updated game, you lose / win / play again

@enduml

PlantUML version 1.2021.9(Sun Jul 25 11:13:56 BST 2021)
(GPL source distribution)
Java Runtime: OpenJDK Runtime Environment
JVM: OpenJDK 64-Bit Server VM
Default Encoding: UTF-8
Language: en
Country: GB
--></g></svg>